<?xml version="1.0" standalone="no"?>
<!DOCTYPE svg PUBLIC "-//W3C//DTD SVG 1.1//EN" "http://www.w3.org/Graphics/SVG/1.1/DTD/svg11.dtd" >
<!--
2013-9-30: Created.
-->
<svg>
<metadata>
Created by iconfont
</metadata>
<defs>

<font id="iconfont" horiz-adv-x="1024" >
  <font-face
    font-family="iconfont"
    font-weight="500"
    font-stretch="normal"
    units-per-em="1024"
    ascent="896"
    descent="-128"
  />
    <missing-glyph />
    
    <glyph glyph-name="cai" unicode="&#58959;" d="M1105.482547 357.204211L992.604593 845.140011A65.626973 65.626973 0 0 1 928.618619 895.99999h-582.109761a32.812987 32.812987 0 0 1-32.812987-32.812987v-670.049725a32.812987 32.812987 0 0 1 32.812987-32.812986H450.199815c72.18997-48.23598 88.924964-146.34794 91.221963-160.785934 12.139995-82.689966 48.56398-131.252946 98.43996-127.315948a98.43996 98.43996 0 0 1 70.219971 32.813986 194.91092 194.91092 0 0 1 32.813986 131.252947l-17.062993 122.721949h182.769925a196.879919 196.879919 0 0 1 196.87992 198.192919z m-65.626974-6.889997A131.253946 131.253946 0 0 0 908.602627 225.950265H714.674707a436.417821 436.417821 0 0 1-58.079976 0c-6.233997 0-4.592998-12.140995-3.608999-18.703993l6.562997-46.92298 18.374993-131.253946a133.221945 133.221945 0 0 0-17.389993-81.048967 32.812987 32.812987 0 0 0-23.95399-11.155996c-6.890997 0-23.62599 22.969991-30.516988 71.204971a328.133865 328.133865 0 0 1-62.672974 151.269938 241.834901 241.834901 0 0 1-68.579972 61.359975 32.812987 32.812987 0 0 1-17.062993 4.265998h-78.751967V830.373017h549.623774zM242.162901 227.920264V830.373017A65.626973 65.626973 0 0 1 176.535928 895.99999H65.625973A65.626973 65.626973 0 0 1 0 830.373017V227.920264a65.626973 65.626973 0 0 1 65.626973-65.626973h110.908955a65.626973 65.626973 0 0 1 65.626973 65.626973z m-65.626973 0H65.625973V830.373017h110.909955z"  horiz-adv-x="1105" />

    
    <glyph glyph-name="guanbi" unicode="&#58960;" d="M557.349769 383.934438l457.337431 457.015472A32.115887 32.115887 0 0 1 969.08204 886.55507L512.065569 429.218639 55.050097 886.55507a32.115887 32.115887 0 0 1-45.60416-45.60516L466.781368 383.934438 9.444938-73.081033a32.115887 32.115887 0 0 1 45.2842-45.284201L512.065569 338.650238l457.016471-457.336431a32.115887 32.115887 0 0 1 45.284201 45.284201z"  horiz-adv-x="1024" />

    
    <glyph glyph-name="gengduo" unicode="&#58961;" d="M36.5725 822.857h1097.143a36.571 36.571 0 0 1 0 73.143H36.5725a36.571 36.571 0 0 1 0-73.143zM1133.7155 424.96H36.5725a36.571 36.571 0 0 1 0-73.143h1097.143a36.571 36.571 0 0 1 0 73.143z m0-479.817H36.5725a36.571 36.571 0 0 1 0-73.143h1097.143a36.571 36.571 0 0 1 0 73.143z"  horiz-adv-x="1170" />

    
    <glyph glyph-name="chucun" unicode="&#58962;" d="M917.28 896H106.72a64 64 0 0 1-64-64v-896a64 64 0 0 1 64-64h810.56a64 64 0 0 1 64 64V832a64 64 0 0 1-64 64zM242.72 832h538.56v-204.16H242.72z m674.56-896H106.72V832h72v-204.16a64 64 0 0 1 64-64h538.56a64 64 0 0 1 64 64V832h72zM647.52 805.44a29.76 29.76 0 0 1-32-26.56v-98.24a32 32 0 0 1 64 0v98.24a29.76 29.76 0 0 1-32 26.56z"  horiz-adv-x="1024" />

    
    <glyph glyph-name="fanhuifangwen" unicode="&#58963;" d="M472.056539 803.240091H219.192786V877.843018c0 16.174984-11.553989 22.777978-25.418975 14.524986L10.56399 786.734107a15.514985 15.514985 0 0 1 0-29.379972l183.209821-105.634896c13.864986-7.922992 25.418975 0 25.418975 14.524985V744.480148h252.863753a406.694603 406.694603 0 1 0 0-813.719205H281.913725a29.379971 29.379971 0 0 1 0-58.759943h190.142814a465.454545 465.454545 0 0 1 0 930.909091z m586.604427-409.336601l139.635864-175.617828 139.305864 175.617828h-278.941728z"  horiz-adv-x="1337" />

    
    <glyph glyph-name="qianjin" unicode="&#58964;" d="M712.891519 383.878583L255.865713 840.905389a32.162283 32.162283 0 0 0 45.669981 45.669981l457.024807-457.024806a64.324565 64.324565 0 0 0 0-91.01797l-457.024807-457.025806a32.162283 32.162283 0 0 0-45.669981 45.348988z"  horiz-adv-x="1024" />

    
    <glyph glyph-name="laba" unicode="&#58965;" d="M855.194 383.66A263.12 263.12 0 0 1 663.28 636.61a33.907 33.907 0 0 1-42.045-33.908 33.907 33.907 0 0 1 24.074-33.907 194.628 194.628 0 0 0 0-374.676 33.907 33.907 0 0 1-24.074-33.907 33.907 33.907 0 0 1 42.045-33.907A263.12 263.12 0 0 1 855.194 383.66zM529.006 896a46.114 46.114 0 0 1-27.804-12.546l-10.85-9.494-109.86-89.515L224.18 655.936H83.465a67.815 67.815 0 0 1-67.815-67.814v-400.784a67.815 67.815 0 0 1 67.815-67.815h131.899l160.381-131.9 111.216-91.21 14.58-11.867A46.114 46.114 0 0 1 529.345-128c11.868 0 20.006 8.816 23.057 24.413a65.78 65.78 0 0 1 0 12.546V858.702a67.815 67.815 0 0 1 0 14.92C548.672 888.201 540.196 896 529.006 896z m-208.19-775.12l-81.039 67.814H83.465V588.122h164.789l78.665 64.424 158.686 130.543V-14.75zM733.806 824.456a33.907 33.907 0 0 1-48.826-30.178 33.907 33.907 0 0 1 19.327-30.516 421.128 421.128 0 0 0 0-756.133 33.907 33.907 0 0 1-19.327-30.516 33.907 33.907 0 0 1 48.826-30.856 488.943 488.943 0 0 1 0 878.538z"  horiz-adv-x="1024" />

    
    <glyph glyph-name="jieping" unicode="&#58966;" d="M803.542 313.943a218.871 218.871 0 0 1-147.834-57.917L547.872 409.619 853.46 845.762a31.999 31.999 0 0 1-51.838 36.479L509.154 466.257 216.046 882.241a31.999 31.999 0 0 1-52.478-36.479l305.908-435.503L364.84 261.145a221.111 221.111 0 1 1 43.198-49.918l100.796 143.355L614.11 204.828a219.831 219.831 0 1 1 189.752 109.115zM221.805-62.042A156.154 156.154 0 1 0 377.96 93.792a156.154 156.154 0 0 0-156.154-155.834z m581.737 0a156.154 156.154 0 1 0 156.154 155.834 156.154 156.154 0 0 0-156.154-155.834z"  horiz-adv-x="1025" />

    
    <glyph glyph-name="neirongguanbi" unicode="&#58967;" d="M512 896a512 512 0 1 1 512-512A512 512 0 0 1 512 896z m0-960a448 448 0 1 0 448 448 448 448 0 0 0-448-448zM736 619.52a32 32 0 0 1-45.12 0L512 442.24 334.72 619.52A32 32 0 0 1 288 574.4l177.28-177.28L288 219.52a32 32 0 1 1 45.12-45.12L512 352l177.28-177.28a32 32 0 0 1 46.72 44.8L557.44 396.8 736 574.4a32 32 0 0 1 0 45.12z"  horiz-adv-x="1024" />

    
    <glyph glyph-name="pifu" unicode="&#58968;" d="M242.083399 831.004886a374.895564 374.895564 0 0 1 282.633671-132.220847A374.895564 374.895564 0 0 1 805.401744 828.730888L978.229543 639.983108a15.593982 15.593982 0 0 0 0-19.816977L863.552676 482.099291h-32.486962a32.486962 32.486962 0 0 1-32.486962-32.486962V-53.930086a15.917982 15.917982 0 0 0-2.597997-9.421989H241.434399a15.917982 15.917982 0 0 0-2.599997 9.421989V446.038333a32.486962 32.486962 0 0 1-29.886965 32.486962l-27.938967 2.273998L65.031604 618.867132c-3.248996 4.222995 0 19.166978 17.54298 38.333956l159.509815 173.803798m0 64.972924a61.399929 61.399929 0 0 1-47.105946-20.466976L35.793638 701.059037c-43.20695-46.779946-44.181949-93.885891-19.491977-123.449857l113.702868-139.041838a61.399929 61.399929 0 0 1 42.55795-22.739974v-469.432454A70.170918 70.170918 0 0 1 237.535404-128H799.229751a70.170918 70.170918 0 0 1 64.972925 74.393914V415.825368h2.923996a60.749929 60.749929 0 0 1 47.105946 22.740974l115.002866 139.042838a82.515904 82.515904 0 0 1-2.599997 104.931878L852.507689 872.911837a61.724928 61.724928 0 0 1-46.129946 20.466976 64.972924 64.972924 0 0 1-49.379943-22.739974 311.546638 311.546638 0 0 0-232.27973-108.180874 311.871638 311.871638 0 0 0-232.27973 110.453872A64.972924 64.972924 0 0 1 241.1104 895.97881z"  horiz-adv-x="1046" />

    
    <glyph glyph-name="shijian" unicode="&#58969;" d="M512 896a512 512 0 1 1 512-512A512 512 0 0 1 512 896z m0-960a448 448 0 1 0 448 448 448 448 0 0 0-448-448zM544 399.68V596.16a32 32 0 1 1-64 0v-209.92a32 32 0 0 1 10.88-23.68 32 32 0 0 1 6.08-7.36L747.2 152.64a32 32 0 0 1 40.32 49.6z"  horiz-adv-x="1024" />

    
    <glyph glyph-name="sousuo" unicode="&#58970;" d="M1013.377-73.275L731.704 208.397a414.622 414.622 0 1 1-45.71-45.39l281.028-281.672a32.191 32.191 0 0 1 45.39 45.39z m-596.18 202.16a351.527 351.527 0 1 0 351.205 351.206 351.85 351.85 0 0 0-351.205-351.206z"  horiz-adv-x="1024" />

    
    <glyph glyph-name="pinglun" unicode="&#58971;" d="M1007.916144 895.97813H66.926943A66.926943 66.926943 0 0 1 0 829.051187v-643.499453a66.926943 66.926943 0 0 1 66.926943-66.926944h208.141823l4.349997-3.011997 394.532664-234.242801a52.202956 52.202956 0 0 1 25.766979-7.696993c19.073984 0 33.462972 15.058987 33.462971 41.159965l60.233949 205.464825h216.173816a66.926943 66.926943 0 0 1 66.925943 66.926943V829.051187a66.926943 66.926943 0 0 1-68.599941 66.926943z m0-710.426396H773.672343a33.462972 33.462972 0 0 1-31.455974-22.419981l-15.726986-44.506963-61.572948-159.619864-256.998782 159.619864-52.536955 30.451975-63.914946 36.474969H66.925943v643.499453h940.989201zM197.098833 506.799461a66.926943 66.926943 0 1 1 133.853886 0 66.926943 66.926943 0 1 1-133.853886 0zM468.486602 506.799461a66.926943 66.926943 0 1 1 133.853886 0 66.926943 66.926943 0 1 1-133.853886 0zM739.539372 506.799461a66.926943 66.926943 0 1 1 133.853886 0 66.926943 66.926943 0 1 1-133.853886 0z"  horiz-adv-x="1076" />

    
    <glyph glyph-name="shuaxin" unicode="&#58972;" d="M991.49278 384.968235a32.261985 32.261985 0 0 1-34.197984 30.003986 32.261985 32.261985 0 0 1-30.326986-35.165984A416.180809 416.180809 0 1 0 477.880016 766.952059v-82.268962L660.805932 790.180049 477.880016 896v-64.52397a480.38278 480.38278 0 0 1-281.970871-840.750614A476.833781 476.833781 0 0 1 511.432-127.99953h32.261985a481.027779 481.027779 0 0 1 447.798795 512.967765z"  horiz-adv-x="1024" />

    
    <glyph glyph-name="xiazai" unicode="&#58973;" d="M488.974 14.311a31.98 31.98 0 0 1 45.092 0l477.142 476.822a31.98 31.98 0 0 1-45.092 45.092L543.98 114.408V864.02a31.98 31.98 0 0 1-63.96 0v-750.57L56.924 536.544a31.98 31.98 0 0 1-45.091-45.412zM991.7-63.4H32.3a31.98 31.98 0 1 1 0-63.96h959.4a31.98 31.98 0 1 1 0 63.96z"  horiz-adv-x="1024" />

    
    <glyph glyph-name="lingdang" unicode="&#58974;" d="M924.96494 235.127947h-40.825995l-9.568998 280.679959C874.569947 718.023876 717.32597 895.99985 513.196 895.99985a370.304946 370.304946 0 0 1-370.623946-367.433946v-293.437957H95.686061A95.685986 95.685986 0 0 1 0.000075 139.441961a95.685986 95.685986 0 0 1 95.685986-95.685986h243.679964v-2.232a169.363975 169.363975 0 0 1 339.047951 0v2.232h246.550964a95.685986 95.685986 0 0 1 95.685985 95.685986 95.685986 95.685986 0 0 1-95.685985 95.685986z m-310.659955-191.371972a105.573985 105.573985 0 0 0-211.466969 0v2.233h210.827969s0.638-1.914 0.638-2.552z m310.659955 65.06699H95.686061a31.894995 31.894995 0 1 0 0 63.789991h78.781988a31.894995 31.894995 0 0 1 31.894996 31.895995V517.082906a314.169954 314.169954 0 0 0 240.171965 308.109954c200.939971 45.609993 364.244947-120.564982 364.244946-309.384954l9.567999-280.679959v-31.894996a31.894995 31.894995 0 0 1 31.895995-31.894995h72.72099a31.894995 31.894995 0 1 0 0-63.789991z"  horiz-adv-x="1024" />

    
    <glyph glyph-name="jisuanqi" unicode="&#58975;" d="M918.4 896H105.6a64 64 0 0 1-64-64v-896a64 64 0 0 1 64-64h812.8a64 64 0 0 1 64 64V832a64 64 0 0 1-64 64z m0-960H105.6V832h812.8zM153.6 742.72h718.08v-143.68H153.6V742.72zM265.6 451.2a64 64 0 1 1 64-64 64 64 0 0 1-64 64z m30.08-72H273.6v-22.08a8 8 0 0 0-16 0V379.2h-22.08a8 8 0 0 0 0 16h22.08V416a8 8 0 0 0 16 0v-22.08h22.08a8 8 0 1 0 0-16z m189.76 72a64 64 0 1 1 64-64 64 64 0 0 1-64 64z m30.08-72h-59.84a8 8 0 0 0 0 16h60.16a8 8 0 1 0 0-16zM265.6 218.56a64 64 0 1 1 64-64 64 64 0 0 1-64 64z m25.6-81.28a8 8 0 1 0-12.16-10.56L265.6 142.4 251.52 128a8 8 0 1 0-12.16 10.56l15.04 17.28-15.04 17.28a8 8 0 0 0 12.16 10.56L265.28 168l13.76 15.68a8 8 0 0 0 12.16-10.56l-15.04-17.28z m194.24 80.32a64 64 0 1 1 64-64 64 64 0 0 1-64 64z m0-35.2a8 8 0 1 0-8-8 8 8 0 0 0 7.68 7.68z m0-57.28a8 8 0 1 0 8 8 8 8 0 0 0-8.32-8.32z m32 20.48h-61.76a8 8 0 1 0 0 16h60.16a8 8 0 0 0 0-16z m239.68 306.24a64 64 0 0 1-64-64V158.4a64 64 0 0 1 130.56 0V386.56a64 64 0 0 1-66.56 65.28zM787.2 238.4h-60.16a8 8 0 0 0 0 16h60.16a8 8 0 0 0 0-16z m0 37.76h-60.16a8 8 0 0 0 0 16h60.16a8 8 0 0 0 0-16zM295.68 395.2H273.6V416a8 8 0 0 1-16 0v-22.08h-22.08a8 8 0 0 1 0-16h22.08v-22.08a8 8 0 0 1 16 0v22.08h22.08a8 8 0 1 1 0 16z m219.84 0h-59.84a8 8 0 0 1 0-16h60.16a8 8 0 1 1 0 16zM787.2 292.48h-60.16a8 8 0 0 1 0-16h60.16a8 8 0 0 1 0 16z m0-36.48h-60.16a8 8 0 0 1 0-16h60.16a8 8 0 0 1 0 16z m-496.96-72.64a8 8 0 0 1-11.2 0l-13.44-16.64-13.76 15.68a8 8 0 0 1-12.16-10.56l15.04-17.28-15.04-17.28a8 8 0 1 1 12.16-10.56l13.76 15.68 13.76-15.68a8 8 0 1 1 12.16 10.56l-15.04 17.28 15.04 17.28a8 8 0 0 1-1.28 11.52zM515.52 160h-59.84a8 8 0 1 1 0-16h60.16a8 8 0 0 1 0 16zM477.12 174.08a8 8 0 1 1 16 0 8 8 0 1 1-16 0zM477.12 132.8a8 8 0 1 1 16 0 8 8 0 1 1-16 0z"  horiz-adv-x="1024" />

    
    <glyph glyph-name="zuidahua" unicode="&#58976;" d="M959.72 896H294.216a63.96 63.96 0 0 1-63.96-63.96v-127.92H64.28A63.96 63.96 0 0 1 0.32 640.16V-63.4a63.96 63.96 0 0 1 63.96-63.96h703.56a63.96 63.96 0 0 1 63.96 63.96V103.535h127.92a63.96 63.96 0 0 1 63.96 63.96V832.04A63.96 63.96 0 0 1 959.72 896zM767.84 167.495V-63.4H64.28V640.16h703.56z m189.322 0H831.8V640.16a63.96 63.96 0 0 1-63.96 63.96H294.216V832.04H959.72z"  horiz-adv-x="1024" />

    
    <glyph glyph-name="naozhong" unicode="&#58977;" d="M728.127 430.024H544.184V682.782a32.614 32.614 0 0 1-65.228 0V397.41a32.614 32.614 0 0 1 32.614-32.614H727.8a32.614 32.614 0 0 1 0 65.228z m157.525 280.48a32.614 32.614 0 0 1 45.986 45.986L801.182 886.945a32.614 32.614 0 0 1-45.007-46.964zM820.424 60.835a456.595 456.595 0 1 1-634.993 17.937L87.589-76.144a32.614 32.614 0 0 1 55.118-34.57l92.95 147.74a456.595 456.595 0 0 1 536.172-15.654l83.166-130.456a32.614 32.614 0 0 1 55.117 34.57z m-700.22 335.597A391.367 391.367 0 1 0 511.57 5.065a391.367 391.367 0 0 0-391.367 391.367zM120.203 700.068a32.614 32.614 0 0 1 23.156 9.458L273.815 839.98a32.614 32.614 0 0 1-46.638 46.312L96.72 755.837a32.614 32.614 0 0 1 23.482-55.77z"  horiz-adv-x="1024" />

    
    <glyph glyph-name="shanchu" unicode="&#58978;" d="M883.056 568.41a31.96 31.96 0 0 1-31.96-31.96v-567.291a31.96 31.96 0 0 0-31.96-31.96h-607.24a31.96 31.96 0 0 0-31.96 31.96V538.047a31.96 31.96 0 0 1-63.921 0V-30.84a95.88 95.88 0 0 1 95.88-95.88h607.241a95.88 95.88 0 0 1 95.88 95.88v567.29a31.96 31.96 0 0 1-31.96 31.96z m110.902 120.808H876.345V832.08A63.92 63.92 0 0 1 812.425 896H210.616a63.92 63.92 0 0 1-63.92-63.92v-142.862H31.96a31.96 31.96 0 0 1 0-63.92h961.998a31.96 31.96 0 0 1 0 63.92z m-181.534 0H210.617V832.08h601.807zM360.19 77.823V522.707a34.836 34.836 0 0 1-31.96 37.073 34.836 34.836 0 0 1-31.96-37.073v-444.884a34.836 34.836 0 0 1 31.96-37.074 34.836 34.836 0 0 1 31.96 37.074z m187.925 0V522.707a34.836 34.836 0 0 1-31.96 37.073 34.836 34.836 0 0 1-31.96-37.073v-444.884a34.836 34.836 0 0 1 31.96-37.074 34.836 34.836 0 0 1 31.96 37.074z m188.564 0V522.707a31.96 31.96 0 1 1-63.92 0v-444.884a31.96 31.96 0 1 1 63.92 0z"  horiz-adv-x="1025" />

    
    <glyph glyph-name="shoucang" unicode="&#58979;" d="M512 772.48L589.76 608A209.28 209.28 0 0 1 736 497.6l177.92-27.2-132.16-135.04A217.28 217.28 0 0 1 728 160l32-187.84-154.24 85.12a205.44 205.44 0 0 1-184.96 0l-155.52-83.52 32 187.84a217.28 217.28 0 0 1-55.04 173.76L108.8 470.4 288 497.6A209.28 209.28 0 0 1 434.24 608L512 772.48M512 896c-10.56 0-21.12-8.32-28.8-25.28L372.8 636.16a143.04 143.04 0 0 0-96-71.68l-241.92-36.8c-37.12-5.76-45.76-32-19.84-58.88L192 288a151.36 151.36 0 0 0 36.48-115.52L186.56-86.4c-4.16-26.24 5.76-41.6 23.68-41.6a53.12 53.12 0 0 1 24.96 7.68L452.48 0a137.92 137.92 0 0 0 119.04 0l217.28-119.68a53.12 53.12 0 0 1 24.96-7.68c17.92 0 27.84 15.36 23.68 41.6L795.2 173.12A151.36 151.36 0 0 0 832 288l177.28 181.12c26.24 26.56 17.28 53.12-19.84 58.88l-241.6 36.8a143.04 143.04 0 0 0-96 71.68L540.8 870.72C533.12 887.68 522.56 896 512 896z"  horiz-adv-x="1024" />

    
    <glyph glyph-name="zhuanfa" unicode="&#58980;" d="M992 384a32 32 0 0 1-32-32v-416H64V832h412.48a32 32 0 0 1 0 64H64A64 64 0 0 1 0 832v-896a64 64 0 0 1 64-64h896a64 64 0 0 1 64 64V352a32 32 0 0 1-32 32zM378.56 147.2a32 32 0 0 1 64 0A480 480 0 0 0 912 624.64l-118.4-118.4a32 32 0 1 1 45.12-45.12l173.44 173.44a32 32 0 0 1 0 45.12L839.04 853.12a32 32 0 0 1-45.44-45.44l119.04-119.04A544 544 0 0 1 378.56 147.2z"  horiz-adv-x="1024" />

    
    <glyph glyph-name="tongbu" unicode="&#58981;" d="M929.671498 431.352258a420.558412 420.558412 0 0 1-417.667498 372.686845l36.305913 35.019951a32.129038 32.129038 0 1 1-44.337673 46.264616l-88.352355-85.460442a32.129038 32.129038 0 0 1 0-45.300645l85.139451-88.031365a32.129038 32.129038 0 0 1 45.622635 44.658664l-27.309183 28.272153A356.623326 356.623326 0 0 0 773.207182 140.591961a32.129038 32.129038 0 1 1 47.228586-43.694693A420.879402 420.879402 0 0 1 929.671498 431.353258z m-372.686844-330.920095a32.129038 32.129038 0 1 1-44.658664-46.265616l27.630173-27.309182a356.623326 356.623326 0 0 0-303.290922 583.770527 32.129038 32.129038 0 1 1-50.1185 41.123769 421.201393 421.201393 0 0 1 323.851307-689.149373c13.172606 0 26.666202 0 40.160798 2.247933l-36.304913-38.231856a32.129038 32.129038 0 0 1 46.264615-44.658663l85.139451 88.031365a32.129038 32.129038 0 0 1 0 45.300644z"  horiz-adv-x="1024" />

    
    <glyph glyph-name="tianjia" unicode="&#58982;" d="M992 416H544V864a32 32 0 0 1-64 0v-448H32a32 32 0 0 1 0-64h448v-448a32 32 0 0 1 64 0V352h448a32 32 0 0 1 0 64z"  horiz-adv-x="1024" />

    
    <glyph glyph-name="geren" unicode="&#58983;" d="M656.07 403.188a266.713 266.713 0 1 1-284.302 0C176.37 341.147 41.734 147.028 41.734-95.38a31.98 31.98 0 1 1 63.96 0c0 261.276 174.61 458.593 406.466 458.593S918.306 165.257 918.306-95.38a31.98 31.98 0 0 1 63.96 0c0 240.81-133.037 434.288-326.196 498.568zM311.965 629.287a202.753 202.753 0 1 0 202.753-202.754 203.073 203.073 0 0 0-202.753 202.754z"  horiz-adv-x="1024" />

    
    <glyph glyph-name="youxiang" unicode="&#58984;" d="M1200 896H80A80 80 0 0 1 0 816v-864a80 80 0 0 1 80-80h1120a80 80 0 0 1 17.6 2 40 40 0 0 1 27.2 10.4v2.4A80 80 0 0 1 1280-48V816a80 80 0 0 1-80 80zM640 312L90 806h1103.2zM80 707.6L448.8 376 80 8.4zM508.4 324l106.4-95.6a40 40 0 0 1 53.2 0l113.2 101.2L1128-48H136.4zM840 383.2l360 320v-712z"  horiz-adv-x="1280" />

    
    <glyph glyph-name="bianji" unicode="&#58985;" d="M992 391.04a32 32 0 0 1-32-32V-64H64V832h416a32 32 0 0 1 0 64H64A64 64 0 0 1 0 832v-896a64 64 0 0 1 64-64h896a64 64 0 0 1 64 64V359.04a32 32 0 0 1-32 32zM344 221.12a32 32 0 0 1 45.12 0l622.4 619.2a32 32 0 1 1-45.44 45.44l-621.76-619.2a32 32 0 0 1-0.32-45.44z"  horiz-adv-x="1024" />

    
    <glyph glyph-name="xiangqing" unicode="&#58986;" d="M911.68 896h-800a64 64 0 0 1-64-64v-896a64 64 0 0 1 64-64h800a64 64 0 0 1 64 64V832a64 64 0 0 1-64 64z m0-960h-800V832h800zM271.68 591.36h472a32 32 0 1 1 0 64h-472a32 32 0 0 1 0-64z m0-234.88h408.64a32 32 0 0 1 0 64H271.68a32 32 0 1 1 0-64z m0-198.4h376.64a32 32 0 1 1 0 64H271.68a32 32 0 0 1 0-64z"  horiz-adv-x="1024" />

    
    <glyph glyph-name="zhuye" unicode="&#58987;" d="M1036.488 409.633L929.684 516.436l-65.725 65.726-42.393 42.721-65.725 65.725L569.51 876.611a65.725 65.725 0 0 1-93.002 0L290.506 690.608l-65.726-65.725-48.308-47.98-65.725-65.725L9.53 409.633a32.863 32.863 0 0 1 46.336-46.336l54.881 54.88v-480.452A65.725 65.725 0 0 1 176.472-128H863.96a65.725 65.725 0 0 1 65.725 65.725V423.764l60.467-60.467a32.863 32.863 0 0 1 46.337 46.336z m-172.53-471.908H176.473V483.902l141.31 141.31 65.725 65.725L523.173 830.275 662.84 690.608l65.725-65.725L864.288 489.16z"  horiz-adv-x="1046" />

    
    <glyph glyph-name="erweima" unicode="&#58988;" d="M418.037 357.154H64.56a63.92 63.92 0 0 1-63.92-63.92v-356.035a63.92 63.92 0 0 1 63.92-63.92h353.478a63.92 63.92 0 0 1 63.92 63.92V293.233a63.92 63.92 0 0 1-63.92 63.92z m0-419.955H64.56V293.233h353.478zM145.418 211.096h191.76v-191.76h-191.76zM418.038 896H64.558A63.92 63.92 0 0 1 0.64 832.08v-347.086a63.92 63.92 0 0 1 63.92-63.92h353.478a63.92 63.92 0 0 1 63.92 63.92V832.08A63.92 63.92 0 0 1 418.038 896z m0-411.006H64.558V832.08h353.478zM145.418 754.417h191.76v-191.76h-191.76z m845.983-396.305H577.518a31.96 31.96 0 0 1-29.723-40.589v-412.285a31.96 31.96 0 0 1 63.92 0V294.192h379.686a31.96 31.96 0 0 1 0 63.92zM959.44 896H609.798a63.92 63.92 0 0 1-63.92-63.92v-347.086a63.92 63.92 0 0 1 63.92-63.92H959.44a63.92 63.92 0 0 1 63.92 63.92V832.08A63.92 63.92 0 0 1 959.44 896z m0-411.006H609.798V832.08H959.44zM688.74 754.417H880.5v-191.76H688.74z m250.885-527.021h82.457v-82.457h-82.457z m-220.204 0h-82.457v-82.457h82.457v-162.996h82.457V145.258H719.42v82.138z m-82.457-272.62h82.457v-82.456h-82.457z m181.533 231.71h82.457v-82.456h-82.457z m-65.838 94.922h82.457v-82.457H752.66zM815.62-40.11h82.457v-82.457H815.62z m124.005 55.93h82.457V-128h-82.457z"  horiz-adv-x="1024" />

    
    <glyph glyph-name="dianhua" unicode="&#58989;" d="M347.837 601.272l-65.936-56.403-33.366-27.805a39.72 39.72 0 0 1-4.369-57.992l30.585-30.585 252.624-252.624 32.57-34.557a39.72 39.72 0 0 1 59.979 4.37l27.407 36.543 46.87 62.361 229.586-240.707-24.23-24.23c-79.44-79.441-335.64 0-560.458 226.011S33.646 688.261 112.69 767.304l33.366 32.97L347.837 601.67m86.988 25.42L174.258 884.482a39.72 39.72 0 0 1-55.61 0L56.685 823.708c-123.531-123.531-22.64-425.011 225.217-673.266s549.734-349.145 675.252-225.613l51.637 51.24a39.72 39.72 0 0 1 0 55.608L718.829 334.35a39.72 39.72 0 0 1-59.979-4.37l-75.072-98.507L331.154 483.7l101.288 84.605a39.72 39.72 0 0 1 2.78 58.787z"  horiz-adv-x="1024" />

    
    <glyph glyph-name="anquanfangwen" unicode="&#58990;" d="M964.72 725.61a33.214 33.214 0 0 1-9.964 0 369.344 369.344 0 0 0-103.96-14.946 370.008 370.008 0 0 0-312.548 170.39 33.214 33.214 0 0 1-54.804 0 370.34 370.34 0 0 0-312.88-171.719 370.673 370.673 0 0 0-101.968 14.282 33.214 33.214 0 0 1-9.632 0 33.214 33.214 0 0 1-33.215-33.214v-332.144C25.75 92.544 391.108-128 512.01-128c94.328 0 486.258 218.883 486.258 486.259V692.728a33.214 33.214 0 0 1-33.546 32.882zM778.057 466.538L512.34 238.687a33.214 33.214 0 0 0-43.178 0 30.225 30.225 0 0 0-4.318 2.657l-143.819 136.18a33.214 33.214 0 0 0 45.504 48.16l123.89-117.247 242.797 208.255a33.214 33.214 0 1 0 43.511-50.154z"  horiz-adv-x="1024" />

    
    <glyph glyph-name="houtui" unicode="&#58991;" d="M310.841053 383.829865l457.13988 457.13988a32.169992 32.169992 0 0 1-45.359989 45.682987l-457.139879-457.140879a64.339983 64.339983 0 0 1 0-91.041976l457.139879-457.139879a32.169992 32.169992 0 0 1 45.359989 45.359988z"  horiz-adv-x="1024" />

    
    <glyph glyph-name="anquansuo" unicode="&#58992;" d="M914.105564 450.405483v44.157952a401.436565 401.436565 0 0 1-802.87313 0v-44.157952a51.182945 51.182945 0 0 1-51.517944-51.517944V-76.478946A51.182945 51.182945 0 0 1 111.232434-127.99889h802.87313a50.179946 50.179946 0 0 1 50.179946 50.179946V400.225537a50.179946 50.179946 0 0 1-50.179946 50.179946z m-735.967202 44.157952a334.529637 334.529637 0 0 0 669.061275 0v-44.157952H178.138362z"  horiz-adv-x="1024" />

    
    <glyph glyph-name="zan" unicode="&#58993;" d="M908.684991 607.414003h-182.459998l17.065 124.373999a194.929998 194.929998 0 0 1-32.816 131.265998A98.448999 98.448999 0 0 1 640.246994 895.87c-50.865 2.954-87.291999-44.63-98.449999-127.326999-1.968-14.111-19.033-112.559999-91.228999-160.799998H346.540997a32.816 32.816 0 0 1-32.817-32.817v-670.109993A32.816 32.816 0 0 1 346.540997-127.99999h582.161994a65.632999 65.632999 0 0 1 63.991999 50.865l112.887999 487.979995a196.897998 196.897998 0 0 1-196.897998 196.569998z m20.018-669.780994H379.356996V541.782003h80.072a32.816 32.816 0 0 1 17.063999 4.266 241.855998 241.855998 0 0 1 68.587 61.366 328.162997 328.162997 0 0 1 62.678999 151.283998c5.579 48.568 22.315 71.539999 29.206 71.54a32.816 32.816 0 0 0 23.956-11.158 133.233999 133.233999 0 0 0 17.392999-81.056999l-18.376999-131.264999-6.564-46.927c0-6.892-2.625-18.05 3.61-18.706a436.456996 436.456996 0 0 1 58.084999 0h193.944998a131.264999 131.264999 0 0 0 131.264999-124.373998z m-752.150993 668.139994H65.631999A65.632999 65.632999 0 0 1 0 540.142003v-601.195994a65.632999 65.632999 0 0 1 65.632999-65.631999h110.918999a65.632999 65.632999 0 0 1 65.633 65.631999V540.141003a65.632999 65.632999 0 0 1-65.633 65.633z m0-666.827994H65.631999V540.141003h110.919999z"  horiz-adv-x="1105" />

    
    <glyph glyph-name="shezhi" unicode="&#58994;" d="M512 590.682a205.708 205.708 0 1 1 205.708-205.709A205.708 205.708 0 0 1 512 590.682z m0-346.2a140.816 140.816 0 1 0 140.816 140.816A140.816 140.816 0 0 0 512 244.158zM958.783 502.428L885.78 513.46a391.95 391.95 0 0 1-16.872 40.882l44.127 60.026a64.892 64.892 0 0 1 0 91.822l-77.222 77.87a64.892 64.892 0 0 1-91.822 0l-59.052-43.801a392.274 392.274 0 0 1-40.882 17.196L632.7 831.108A64.892 64.892 0 0 1 567.807 896H458.464a64.892 64.892 0 0 1-64.892-64.892l-11.032-72.68a392.598 392.598 0 0 1-40.882-16.872l-60.35 44.127a64.892 64.892 0 0 1-91.823 0l-77.546-77.546a64.892 64.892 0 0 1 0-91.823l44.127-60.025a392.274 392.274 0 0 1-16.548-39.909l-74.626-9.734A64.892 64.892 0 0 1 0 441.754v-109.668a64.892 64.892 0 0 1 64.892-64.892l74.302-11.356a392.274 392.274 0 0 1 16.223-41.207l-45.1-60.999a64.892 64.892 0 0 1 0-91.822l77.546-77.546a64.892 64.892 0 0 1 91.823 0l60.674 44.775a392.598 392.598 0 0 1 39.26-16.547l11.356-75.6A64.892 64.892 0 0 1 455.868-128h109.668a64.892 64.892 0 0 1 64.892 64.892l11.357 74.302a392.923 392.923 0 0 1 39.584 16.223l61.323-45.1a64.892 64.892 0 0 1 91.823 0l77.546 77.546a64.892 64.892 0 0 1 0 91.823l-44.127 60.025a392.274 392.274 0 0 1 16.872 39.909l74.626 11.356a64.892 64.892 0 0 1 64.892 64.892V437.536a64.892 64.892 0 0 1-65.54 64.892z m0-174.56h-9.734l-74.626-11.356-38.286-5.84-12.979-36.34a329.328 329.328 0 0 0-13.951-32.446L792.01 206.52l23.361-32.446 44.127-60.026 2.92-3.893 3.57-3.57-77.547-78.195-3.569 3.57-3.894 2.92-61.323 45.1-32.446 23.036-33.744-18.17a329.653 329.653 0 0 0-32.446-13.627l-36.989-12.978-6.489-38.287-11.356-74.301v-9.734H455.868V-53.05l-11.356 75.6-5.84 38.286-36.664 12.978a329.004 329.004 0 0 0-32.447 13.627l-35.366 16.872-32.446-23.036-60.674-44.776-3.894-2.92-3.569-3.57-77.546 77.547 3.569 3.569 2.596 3.894 45.424 61.323 23.037 32.446-16.872 35.042a329.328 329.328 0 0 0-13.627 32.446l-12.654 35.69-38.611 6.49-74.302 11.356h-9.734v111.94h9.734l74.626 11.355 38.611 5.84 12.979 36.665a329.328 329.328 0 0 0 13.951 32.446l16.872 35.042-23.036 32.446-44.452 59.376-1.946 3.894-4.218 3.569 77.221 77.546 3.57-3.569 3.893-2.596 60.35-44.775 32.446-23.037 35.042 16.872a329.004 329.004 0 0 0 34.068 14.276l36.989 12.979 5.84 38.61 10.058 72.68v9.734h110.317v-9.734l11.356-73.653 4.867-38.286 36.665-12.979a329.004 329.004 0 0 0 34.392-14.276l35.367-17.196 32.446 23.36 59.376 43.479 4.218 1.946 3.57 3.57 77.546-77.547-3.57-3.569-2.92-3.893-44.45-59.377-23.038-32.446 17.521-33.744a328.68 328.68 0 0 0 13.952-34.068l12.654-36.989 38.936-5.84 73.003-11.032h9.734z"  horiz-adv-x="1024" />

    


  </font>
</defs>
</svg>
